<svg xmlns="http://www.w3.org/2000/svg" viewBox="0 0 800 400">
  <!-- 배경 -->
  <rect width="800" height="400" fill="#f8f8f8"/>
  <text x="400" y="30" font-family="Arial" font-size="22" font-weight="bold" text-anchor="middle">ASIO 네트워크 라이브러리 상세 다이어그램</text>
  
  <!-- 1. 서비스 초기화 및 세션 생성 섹션 -->
  <rect x="50" y="50" width="700" height="320" rx="10" fill="#e6f2ff" stroke="#0066cc" stroke-width="2"/>
  <text x="400" y="75" font-family="Arial" font-size="18" font-weight="bold" text-anchor="middle">1. 서비스 초기화 및 세션 생성</text>
  
  <!-- Client 영역 -->
  <rect x="80" y="100" width="300" height="250" rx="5" fill="#e6f0ff" stroke="#0066cc" stroke-width="1"/>
  <text x="230" y="125" font-family="Arial" font-size="16" font-weight="bold" text-anchor="middle">Client</text>
  
  <!-- Client 내부 컴포넌트 -->
  <rect x="100" y="140" width="120" height="30" rx="5" fill="#b3d9ff" stroke="#0066cc" stroke-width="1"/>
  <text x="160" y="160" font-family="Arial" font-size="12" text-anchor="middle">main()</text>
  
  <!-- 화살표 -->
  <line x1="220" y1="155" x2="250" y2="155" stroke="#000" stroke-width="1.5"/>
  <polygon points="250,155 245,152 245,158" fill="#000"/>
  
  <rect x="250" y="140" width="120" height="30" rx="5" fill="#b3d9ff" stroke="#0066cc" stroke-width="1"/>
  <text x="310" y="160" font-family="Arial" font-size="12" text-anchor="middle">CoreGlobal 생성</text>
  
  <rect x="100" y="180" width="120" height="30" rx="5" fill="#b3d9ff" stroke="#0066cc" stroke-width="1"/>
  <text x="160" y="200" font-family="Arial" font-size="12" text-anchor="middle">asio_io_context 생성</text>
  
  <rect x="250" y="180" width="120" height="30" rx="5" fill="#b3d9ff" stroke="#0066cc" stroke-width="1"/>
  <text x="310" y="200" font-family="Arial" font-size="12" text-anchor="middle">ClientSession 생성</text>
  
  <!-- 화살표 -->
  <line x1="160" y1="210" x2="160" y2="230" stroke="#000" stroke-width="1.5"/>
  <polygon points="160,230 157,225 163,225" fill="#000"/>
  
  <line x1="310" y1="210" x2="310" y2="230" stroke="#000" stroke-width="1.5"/>
  <polygon points="310,230 307,225 313,225" fill="#000"/>
  
  <rect x="100" y="230" width="270" height="30" rx="5" fill="#b3d9ff" stroke="#0066cc" stroke-width="1"/>
  <text x="235" y="250" font-family="Arial" font-size="12" text-anchor="middle">ClientService 생성 (Service 상속)</text>
  
  <!-- 화살표 -->
  <line x1="235" y1="260" x2="235" y2="280" stroke="#000" stroke-width="1.5"/>
  <polygon points="235,280 232,275 238,275" fill="#000"/>
  
  <rect x="100" y="280" width="270" height="30" rx="5" fill="#b3d9ff" stroke="#0066cc" stroke-width="1"/>
  <text x="235" y="300" font-family="Arial" font-size="12" text-anchor="middle">GThreadManager->Launch(ioc.run())</text>
  
  <!-- 화살표 -->
  <line x1="235" y1="310" x2="160" y2="330" stroke="#000" stroke-width="1.5"/>
  <polygon points="160,330 163,324 157,324" fill="#000"/>
  
  <rect x="100" y="330" width="120" height="30" rx="5" fill="#b3d9ff" stroke="#0066cc" stroke-width="1"/>
  <text x="160" y="350" font-family="Arial" font-size="12" text-anchor="middle">service->Start()</text>
  
  <!-- Server 영역 -->
  <rect x="420" y="100" width="300" height="250" rx="5" fill="#e6ffe6" stroke="#009933" stroke-width="1"/>
  <text x="570" y="125" font-family="Arial" font-size="16" font-weight="bold" text-anchor="middle">Server</text>
  
  <!-- Server 내부 컴포넌트 -->
  <rect x="440" y="140" width="120" height="30" rx="5" fill="#b3ffb3" stroke="#009933" stroke-width="1"/>
  <text x="500" y="160" font-family="Arial" font-size="12" text-anchor="middle">main()</text>
  
  <!-- 화살표 -->
  <line x1="560" y1="155" x2="590" y2="155" stroke="#000" stroke-width="1.5"/>
  <polygon points="590,155 585,152 585,158" fill="#000"/>
  
  <rect x="590" y="140" width="120" height="30" rx="5" fill="#b3ffb3" stroke="#009933" stroke-width="1"/>
  <text x="650" y="160" font-family="Arial" font-size="12" text-anchor="middle">CoreGlobal 생성</text>
  
  <rect x="440" y="180" width="120" height="30" rx="5" fill="#b3ffb3" stroke="#009933" stroke-width="1"/>
  <text x="500" y="200" font-family="Arial" font-size="12" text-anchor="middle">asio_io_context 생성</text>
  
  <rect x="590" y="180" width="120" height="30" rx="5" fill="#b3ffb3" stroke="#009933" stroke-width="1"/>
  <text x="650" y="200" font-family="Arial" font-size="12" text-anchor="middle">GameSession Factory</text>
  
  <!-- 화살표 -->
  <line x1="500" y1="210" x2="500" y2="230" stroke="#000" stroke-width="1.5"/>
  <polygon points="500,230 497,225 503,225" fill="#000"/>
  
  <line x1="650" y1="210" x2="650" y2="230" stroke="#000" stroke-width="1.5"/>
  <polygon points="650,230 647,225 653,225" fill="#000"/>
  
  <rect x="440" y="230" width="270" height="30" rx="5" fill="#b3ffb3" stroke="#009933" stroke-width="1"/>
  <text x="575" y="250" font-family="Arial" font-size="12" text-anchor="middle">ServerService 생성 (Service 상속)</text>
  
  <!-- 화살표 -->
  <line x1="575" y1="260" x2="575" y2="280" stroke="#000" stroke-width="1.5"/>
  <polygon points="575,280 572,275 578,275" fill="#000"/>
  
  <rect x="440" y="280" width="270" height="30" rx="5" fill="#b3ffb3" stroke="#009933" stroke-width="1"/>
  <text x="575" y="300" font-family="Arial" font-size="12" text-anchor="middle">GThreadManager->Launch(ioc.run()) * 4 스레드</text>
  
  <!-- 화살표 -->
  <line x1="575" y1="310" x2="500" y2="330" stroke="#000" stroke-width="1.5"/>
  <polygon points="500,330 504,325 498,326" fill="#000"/>
  
  <line x1="575" y1="310" x2="650" y2="330" stroke="#000" stroke-width="1.5"/>
  <polygon points="650,330 645,325 648,326" fill="#000"/>
  
  <rect x="440" y="330" width="120" height="30" rx="5" fill="#b3ffb3" stroke="#009933" stroke-width="1"/>
  <text x="500" y="350" font-family="Arial" font-size="12" text-anchor="middle">service->Start()</text>
  
  <rect x="590" y="330" width="120" height="30" rx="5" fill="#b3ffb3" stroke="#009933" stroke-width="1"/>
  <text x="650" y="350" font-family="Arial" font-size="12" text-anchor="middle">async_accept</text>
</svg>
