<svg xmlns="http://www.w3.org/2000/svg" viewBox="0 0 800 480">
  <!-- 배경 -->
  <rect width="800" height="480" fill="#f8f8f8"/>
  <text x="400" y="30" font-family="Arial" font-size="22" font-weight="bold" text-anchor="middle">ASIO 네트워크 라이브러리 상세 다이어그램</text>
  
  <!-- 2. 연결 과정 (Connect) 섹션 -->
  <rect x="50" y="50" width="700" height="400" rx="10" fill="#fff2e6" stroke="#ff8c1a" stroke-width="2"/>
  <text x="400" y="75" font-family="Arial" font-size="18" font-weight="bold" text-anchor="middle">2. 연결 과정 (Connect)</text>
  
  <!-- Client 연결 영역 -->
  <rect x="80" y="100" width="300" height="330" rx="5" fill="#ffe6cc" stroke="#ff8c1a" stroke-width="1"/>
  <text x="230" y="125" font-family="Arial" font-size="16" font-weight="bold" text-anchor="middle">Client</text>
  
  <!-- Client 연결 과정 -->
  <rect x="100" y="140" width="260" height="30" rx="5" fill="#ffd9b3" stroke="#ff8c1a" stroke-width="1"/>
  <text x="230" y="160" font-family="Arial" font-size="12" text-anchor="middle">service->Start()</text>
  
  <!-- 화살표 -->
  <line x1="230" y1="170" x2="230" y2="190" stroke="#000" stroke-width="1.5"/>
  <polygon points="230,190 227,185 233,185" fill="#000"/>
  
  <rect x="100" y="190" width="260" height="30" rx="5" fill="#ffd9b3" stroke="#ff8c1a" stroke-width="1"/>
  <text x="230" y="210" font-family="Arial" font-size="12" text-anchor="middle">ClientService::Start() -> CreateSession()</text>
  
  <!-- 화살표 -->
  <line x1="230" y1="220" x2="230" y2="240" stroke="#000" stroke-width="1.5"/>
  <polygon points="230,240 227,235 233,235" fill="#000"/>
  
  <rect x="100" y="240" width="260" height="30" rx="5" fill="#ffd9b3" stroke="#ff8c1a" stroke-width="1"/>
  <text x="230" y="260" font-family="Arial" font-size="12" text-anchor="middle">Session::Connect()</text>
  
  <!-- 화살표 -->
  <line x1="230" y1="270" x2="230" y2="290" stroke="#000" stroke-width="1.5"/>
  <polygon points="230,290 227,285 233,285" fill="#000"/>
  
  <rect x="100" y="290" width="260" height="30" rx="5" fill="#ffd9b3" stroke="#ff8c1a" stroke-width="1"/>
  <text x="230" y="310" font-family="Arial" font-size="11" text-anchor="middle">socket.async_connect(address.GetEndpoint(), callback)</text>
  
  <!-- 화살표 -->
  <line x1="230" y1="320" x2="230" y2="340" stroke="#000" stroke-width="1.5"/>
  <polygon points="230,340 227,335 233,335" fill="#000"/>
  
  <rect x="100" y="340" width="260" height="30" rx="5" fill="#ffd9b3" stroke="#ff8c1a" stroke-width="1"/>
  <text x="230" y="360" font-family="Arial" font-size="12" text-anchor="middle">비동기 연결 요청 (TCP SYN 전송)</text>
  
  <!-- 화살표 -->
  <line x1="230" y1="370" x2="230" y2="390" stroke="#000" stroke-width="1.5"/>
  <polygon points="230,390 227,385 233,385" fill="#000"/>
  
  <rect x="100" y="390" width="260" height="30" rx="5" fill="#ffd9b3" stroke="#ff8c1a" stroke-width="1"/>
  <text x="230" y="410" font-family="Arial" font-size="12" text-anchor="middle">연결 완료 콜백 호출</text>
  
  <!-- 화살표 -->
  <line x1="230" y1="420" x2="230" y2="440" stroke="#000" stroke-width="1.5"/>
  <polygon points="230,440 227,435 233,435" fill="#000"/>
  
  <rect x="100" y="440" width="260" height="30" rx="5" fill="#ffd9b3" stroke="#ff8c1a" stroke-width="1"/>
  <text x="230" y="460" font-family="Arial" font-size="12" text-anchor="middle">Session::ProcessConnect()</text>
  
  <!-- 화살표 -->
  <line x1="230" y1="470" x2="230" y2="490" stroke="#000" stroke-width="1.5"/>
  <polygon points="230,490 227,485 233,485" fill="#000"/>
  
  <rect x="100" y="490" width="260" height="30" rx="5" fill="#ffd9b3" stroke="#ff8c1a" stroke-width="1"/>
  <text x="230" y="510" font-family="Arial" font-size="11" text-anchor="middle">ClientSession::OnConnected(), RegisterRecv()</text>
  
  <!-- Server 연결 영역 -->
  <rect x="420" y="100" width="300" height="330" rx="5" fill="#e6ffe6" stroke="#009933" stroke-width="1"/>
  <text x="570" y="125" font-family="Arial" font-size="16" font-weight="bold" text-anchor="middle">Server</text>
  
  <!-- Server 연결 과정 -->
  <rect x="440" y="140" width="260" height="30" rx="5" fill="#b3ffb3" stroke="#009933" stroke-width="1"/>
  <text x="570" y="160" font-family="Arial" font-size="12" text-anchor="middle">service->Start()</text>
  
  <!-- 화살표 -->
  <line x1="570" y1="170" x2="570" y2="190" stroke="#000" stroke-width="1.5"/>
  <polygon points="570,190 567,185 573,185" fill="#000"/>
  
  <rect x="440" y="190" width="260" height="30" rx="5" fill="#b3ffb3" stroke="#009933" stroke-width="1"/>
  <text x="570" y="210" font-family="Arial" font-size="12" text-anchor="middle">ServerService::Start() -> async_accept()</text>
  
  <!-- 화살표 -->
  <line x1="570" y1="220" x2="570" y2="240" stroke="#000" stroke-width="1.5"/>
  <polygon points="570,240 567,235 573,235" fill="#000"/>
  
  <rect x="440" y="240" width="260" height="30" rx="5" fill="#b3ffb3" stroke="#009933" stroke-width="1"/>
  <text x="570" y="260" font-family="Arial" font-size="12" text-anchor="middle">비동기 수락 대기</text>
  
  <!-- 화살표 -->
  <line x1="570" y1="270" x2="570" y2="290" stroke="#000" stroke-width="1.5"/>
  <polygon points="570,290 567,285 573,285" fill="#000"/>
  
  <rect x="440" y="290" width="260" height="30" rx="5" fill="#b3ffb3" stroke="#009933" stroke-width="1"/>
  <text x="570" y="310" font-family="Arial" font-size="12" text-anchor="middle">연결 요청 수신 (TCP SYN 수신)</text>
  
  <!-- 화살표 -->
  <line x1="570" y1="320" x2="570" y2="340" stroke="#000" stroke-width="1.5"/>
  <polygon points="570,340 567,335 573,335" fill="#000"/>
  
  <rect x="440" y="340" width="260" height="30" rx="5" fill="#b3ffb3" stroke="#009933" stroke-width="1"/>
  <text x="570" y="360" font-family="Arial" font-size="12" text-anchor="middle">async_accept 콜백 호출</text>
  
  <!-- 화살표 -->
  <line x1="570" y1="370" x2="570" y2="390" stroke="#000" stroke-width="1.5"/>
  <polygon points="570,390 567,385 573,385" fill="#000"/>
  
  <rect x="440" y="390" width="260" height="30" rx="5" fill="#b3ffb3" stroke="#009933" stroke-width="1"/>
  <text x="570" y="410" font-family="Arial" font-size="12" text-anchor="middle">Session::ProcessConnect()</text>
  
  <!-- 화살표 -->
  <line x1="570" y1="420" x2="570" y2="440" stroke="#000" stroke-width="1.5"/>
  <polygon points="570,440 567,435 573,435" fill="#000"/>
  
  <rect x="440" y="440" width="260" height="30" rx="5" fill="#b3ffb3" stroke="#009933" stroke-width="1"/>
  <text x="570" y="460" font-family="Arial" font-size="11" text-anchor="middle">GameSession::OnConnected(), RegisterRecv()</text>
  
  <!-- 연결 요청 화살표 -->
  <line x1="360" y1="355" x2="440" y2="305" stroke="#ff8c1a" stroke-width="2" stroke-dasharray="5,3"/>
  <polygon points="440,305 432,310 435,301" fill="#ff8c1a"/>
  <text x="400" y="325" font-family="Arial" font-size="10" text-anchor="middle" fill="#ff8c1a">TCP SYN</text>
</svg>
