<svg xmlns="http://www.w3.org/2000/svg" viewBox="0 0 800 650">
  <!-- 배경 -->
  <rect width="800" height="650" fill="#f8f8f8"/>
  <text x="400" y="30" font-family="Arial" font-size="22" font-weight="bold" text-anchor="middle">ASIO 네트워크 라이브러리 상세 다이어그램</text>
  
  <!-- 3. 메시지 송수신 과정 섹션 -->
  <rect x="50" y="50" width="700" height="570" rx="10" fill="#f2e6ff" stroke="#9933ff" stroke-width="2"/>
  <text x="400" y="75" font-family="Arial" font-size="18" font-weight="bold" text-anchor="middle">3. 메시지 송수신 과정</text>
  
  <!-- Client 메시지 송신 영역 -->
  <rect x="70" y="90" width="320" height="510" rx="5" fill="#e6ccff" stroke="#9933ff" stroke-width="1"/>
  <text x="230" y="110" font-family="Arial" font-size="16" font-weight="bold" text-anchor="middle">Client</text>
  
  <!-- Client 메시지 송신 과정 -->
  <rect x="90" y="130" width="280" height="30" rx="5" fill="#d9b3ff" stroke="#9933ff" stroke-width="1"/>
  <text x="230" y="150" font-family="Arial" font-size="12" text-anchor="middle">Session::SendChatPacket(msg)</text>
  
  <!-- 메모리 할당 과정 설명 -->
  <rect x="100" y="170" width="260" height="120" rx="5" fill="#ffffcc" stroke="#999900" stroke-width="1"/>
  <text x="105" y="185" font-family="Arial" font-size="10" text-anchor="start">메시지 할당 과정:</text>
  <text x="105" y="200" font-family="Arial" font-size="10" text-anchor="start">1. GSendBufferManager 메모리풀 요청</text>
  <text x="105" y="215" font-family="Arial" font-size="10" text-anchor="start">2. 스레드 로컬 버퍼 체크 (LSendBufferChunk)</text>
  <text x="105" y="230" font-family="Arial" font-size="10" text-anchor="start">3. 지정된 크기의 버퍼 할당 (Pool)</text>
  <text x="105" y="245" font-family="Arial" font-size="10" text-anchor="start">4. 버퍼에 실제 데이터 복사</text>
  <text x="105" y="260" font-family="Arial" font-size="10" text-anchor="start">5. 버퍼 사용 완료 (SendBufferChunk)</text>
  
  <rect x="90" y="300" width="280" height="30" rx="5" fill="#d9b3ff" stroke="#9933ff" stroke-width="1"/>
  <text x="230" y="320" font-family="Arial" font-size="12" text-anchor="middle">GSendBufferManager->Open(size)</text>
  
  <!-- 화살표 -->
  <line x1="230" y1="160" x2="230" y2="300" stroke="#000" stroke-width="1.5"/>
  <polygon points="230,300 227,295 233,295" fill="#000"/>
  
  <!-- 화살표 -->
  <line x1="230" y1="330" x2="230" y2="350" stroke="#000" stroke-width="1.5"/>
  <polygon points="230,350 227,345 233,345" fill="#000"/>
  
  <rect x="90" y="350" width="280" height="30" rx="5" fill="#d9b3ff" stroke="#9933ff" stroke-width="1"/>
  <text x="230" y="370" font-family="Arial" font-size="12" text-anchor="middle">SendBuffer::Buffer() 값 데이터 채우기</text>
  
  <!-- 화살표 -->
  <line x1="230" y1="380" x2="230" y2="400" stroke="#000" stroke-width="1.5"/>
  <polygon points="230,400 227,395 233,395" fill="#000"/>
  
  <rect x="90" y="400" width="280" height="30" rx="5" fill="#d9b3ff" stroke="#9933ff" stroke-width="1"/>
  <text x="230" y="420" font-family="Arial" font-size="12" text-anchor="middle">SendBuffer::Close(size)</text>
  
  <!-- 화살표 -->
  <line x1="230" y1="430" x2="230" y2="450" stroke="#000" stroke-width="1.5"/>
  <polygon points="230,450 227,445 233,445" fill="#000"/>
  
  <rect x="90" y="450" width="280" height="30" rx="5" fill="#d9b3ff" stroke="#9933ff" stroke-width="1"/>
  <text x="230" y="470" font-family="Arial" font-size="12" text-anchor="middle">Session::Send(SendBufferRef sendBuffer)</text>
  
  <!-- 화살표 -->
  <line x1="230" y1="480" x2="230" y2="500" stroke="#000" stroke-width="1.5"/>
  <polygon points="230,500 227,495 233,495" fill="#000"/>
  
  <rect x="90" y="500" width="280" height="30" rx="5" fill="#d9b3ff" stroke="#9933ff" stroke-width="1"/>
  <text x="230" y="520" font-family="Arial" font-size="11" text-anchor="middle">_sendQueue.push(sendBuffer) 및 RegisterSend()</text>
  
  <!-- 화살표 -->
  <line x1="230" y1="530" x2="230" y2="550" stroke="#000" stroke-width="1.5"/>
  <polygon points="230,550 227,545 233,545" fill="#000"/>
  
  <rect x="90" y="550" width="280" height="30" rx="5" fill="#d9b3ff" stroke="#9933ff" stroke-width="1"/>
  <text x="230" y="570" font-family="Arial" font-size="12" text-anchor="middle">socket.async_write_some(buffers, callback)</text>
  
  <!-- Server 메시지 수신 영역 -->
  <rect x="410" y="90" width="320" height="510" rx="5" fill="#e6ccff" stroke="#9933ff" stroke-width="1"/>
  <text x="570" y="110" font-family="Arial" font-size="16" font-weight="bold" text-anchor="middle">Server</text>
  
  <!-- Server 메시지 수신 과정 -->
  <rect x="430" y="130" width="280" height="30" rx="5" fill="#d9b3ff" stroke="#9933ff" stroke-width="1"/>
  <text x="570" y="150" font-family="Arial" font-size="12" text-anchor="middle">async_read_some(buffer, callback)</text>
  
  <!-- 화살표 -->
  <line x1="570" y1="160" x2="570" y2="180" stroke="#000" stroke-width="1.5"/>
  <polygon points="570,180 567,175 573,175" fill="#000"/>
  
  <rect x="430" y="180" width="280" height="30" rx="5" fill="#d9b3ff" stroke="#9933ff" stroke-width="1"/>
  <text x="570" y="200" font-family="Arial" font-size="12" text-anchor="middle">데이터 수신 및 콜백 호출</text>
  
  <!-- 화살표 -->
  <line x1="570" y1="210" x2="570" y2="230" stroke="#000" stroke-width="1.5"/>
  <polygon points="570,230 567,225 573,225" fill="#000"/>
  
  <rect x="430" y="230" width="280" height="30" rx="5" fill="#d9b3ff" stroke="#9933ff" stroke-width="1"/>
  <text x="570" y="250" font-family="Arial" font-size="12" text-anchor="middle">RecvBuffer::OnWrite(bytesTransferred)</text>
  
  <!-- 화살표 -->
  <line x1="570" y1="260" x2="570" y2="280" stroke="#000" stroke-width="1.5"/>
  <polygon points="570,280 567,275 573,275" fill="#000"/>
  
  <rect x="430" y="280" width="280" height="30" rx="5" fill="#d9b3ff" stroke="#9933ff" stroke-width="1"/>
  <text x="570" y="300" font-family="Arial" font-size="12" text-anchor="middle">OnRecv(buffer, dataSize)</text>
  
  <!-- 화살표 -->
  <line x1="570" y1="310" x2="570" y2="330" stroke="#000" stroke-width="1.5"/>
  <polygon points="570,330 567,325 573,325" fill="#000"/>
  
  <rect x="430" y="330" width="280" height="30" rx="5" fill="#d9b3ff" stroke="#9933ff" stroke-width="1"/>
  <text x="570" y="350" font-family="Arial" font-size="12" text-anchor="middle">PacketSession::OnRecv() -> OnRecvPacket()</text>
  
  <!-- 화살표 -->
  <line x1="570" y1="360" x2="570" y2="380" stroke="#000" stroke-width="1.5"/>
  <polygon points="570,380 567,375 573,375" fill="#000"/>
  
  <rect x="430" y="380" width="280" height="30" rx="5" fill="#d9b3ff" stroke="#9933ff" stroke-width="1"/>
  <text x="570" y="400" font-family="Arial" font-size="12" text-anchor="middle">GameSession::OnRecvPacket(buffer, len)</text>
  
  <!-- 수신 버퍼 설명 -->
  <rect x="430" y="430" width="280" height="100" rx="5" fill="#ffffcc" stroke="#999900" stroke-width="1"/>
  <text x="435" y="445" font-family="Arial" font-size="10" text-anchor="start">RecvBuffer 구조:</text>
  <text x="435" y="465" font-family="Arial" font-size="10" text-anchor="start">1. 고정 크기의 버퍼 (BUFFER_COUNT * bufferSize)</text>
  <text x="435" y="485" font-family="Arial" font-size="10" text-anchor="start">2. 링 버퍼 개념으로 데이터 처리</text>
  <text x="435" y="505" font-family="Arial" font-size="10" text-anchor="start">3. Clean()으로 버퍼 위치 재조정</text>
  
  <!-- 송수신 화살표 -->
  <line x1="370" y1="550" x2="430" y2="180" stroke="#9933ff" stroke-width="2" stroke-dasharray="5,3"/>
  <polygon points="430,180 422,183 425,175" fill="#9933ff"/>
  <text x="400" y="330" font-family="Arial" font-size="12" text-anchor="middle" fill="#9933ff">TCP 데이터 전송</text>
  
  <!-- 응답 송신 화살표 -->
  <line x1="430" y1="380" x2="370" y2="550" stroke="#9933ff" stroke-width="2" stroke-dasharray="5,3"/>
  <text x="400" y="480" font-family="Arial" font-size="12" text-anchor="middle" fill="#9933ff">응답 메시지</text>
</svg>
